<svg width="320" height="320" viewBox="0 0 320 320" fill="none" xmlns="http://www.w3.org/2000/svg">
  <rect width="320" height="320" rx="72" fill="#ECF2FB"/>
  <rect x="26" y="26" width="268" height="268" rx="56" fill="url(#bg)"/>
  <circle cx="160" cy="129" r="56" fill="#F5D7C1"/>
  <path d="M98 129C98 87.0264 132.026 53 174 53C215.974 53 250 87.0264 250 129V150H98V129Z" fill="#1A3B69"/>
  <path d="M86 284C97.2843 237.742 121.951 214 160 214C198.049 214 222.716 237.742 234 284H86Z" fill="#31598B"/>
  <path d="M126 177C136.699 185.695 148.033 190.043 160 190.043C171.967 190.043 183.301 185.695 194 177V220H126V177Z" fill="#EFCBAD"/>
  <defs>
    <linearGradient id="bg" x1="36" y1="34" x2="292" y2="292" gradientUnits="userSpaceOnUse">
      <stop stop-color="#FAFCFF"/>
      <stop offset="1" stop-color="#DBE6F4"/>
    </linearGradient>
  </defs>
</svg>
